<mxfile host="app.diagrams.net" agent="Mozilla/5.0 (Windows NT 10.0; Win64; x64) AppleWebKit/537.36 (KHTML, like Gecko) Chrome/140.0.0.0 Safari/537.36" version="28.2.3">
  <diagram name="ページ1" id="4r_3FdaeHNwoi5cnvbYD">
    <mxGraphModel dx="1426" dy="777" grid="1" gridSize="10" guides="1" tooltips="1" connect="1" arrows="1" fold="1" page="1" pageScale="1" pageWidth="827" pageHeight="1169" math="0" shadow="0">
      <root>
        <mxCell id="0" />
        <mxCell id="1" parent="0" />
        <mxCell id="qv_K_vGAlu7Hvk6HKxNC-1" value="&lt;font style=&quot;font-size: 22px;&quot;&gt;BBショップ管理サイトシステム&lt;/font&gt;" style="text;html=1;align=center;verticalAlign=middle;resizable=0;points=[];autosize=1;strokeColor=none;fillColor=none;" vertex="1" parent="1">
          <mxGeometry x="10" y="40" width="340" height="40" as="geometry" />
        </mxCell>
        <mxCell id="qv_K_vGAlu7Hvk6HKxNC-2" value="Actor" style="shape=umlActor;verticalLabelPosition=bottom;verticalAlign=top;html=1;outlineConnect=0;" vertex="1" parent="1">
          <mxGeometry x="40" y="240" width="40" height="80" as="geometry" />
        </mxCell>
        <mxCell id="qv_K_vGAlu7Hvk6HKxNC-3" value="" style="endArrow=classic;html=1;rounded=0;entryX=0;entryY=0.5;entryDx=0;entryDy=0;" edge="1" parent="1" source="qv_K_vGAlu7Hvk6HKxNC-2" target="qv_K_vGAlu7Hvk6HKxNC-4">
          <mxGeometry width="50" height="50" relative="1" as="geometry">
            <mxPoint x="510" y="420" as="sourcePoint" />
            <mxPoint x="160" y="200" as="targetPoint" />
          </mxGeometry>
        </mxCell>
        <mxCell id="qv_K_vGAlu7Hvk6HKxNC-4" value="商品の閲覧" style="rounded=0;whiteSpace=wrap;html=1;" vertex="1" parent="1">
          <mxGeometry x="200" y="160" width="120" height="60" as="geometry" />
        </mxCell>
        <mxCell id="qv_K_vGAlu7Hvk6HKxNC-6" value="未ログイン状態" style="text;html=1;align=center;verticalAlign=middle;resizable=0;points=[];autosize=1;strokeColor=none;fillColor=none;" vertex="1" parent="1">
          <mxGeometry x="60" y="190" width="110" height="30" as="geometry" />
        </mxCell>
        <mxCell id="qv_K_vGAlu7Hvk6HKxNC-7" value="ログインをする" style="rounded=0;whiteSpace=wrap;html=1;" vertex="1" parent="1">
          <mxGeometry x="200" y="360" width="120" height="60" as="geometry" />
        </mxCell>
        <mxCell id="qv_K_vGAlu7Hvk6HKxNC-8" value="" style="endArrow=classic;html=1;rounded=0;entryX=0;entryY=0.5;entryDx=0;entryDy=0;exitX=1;exitY=0.3333333333333333;exitDx=0;exitDy=0;exitPerimeter=0;" edge="1" parent="1" source="qv_K_vGAlu7Hvk6HKxNC-2" target="qv_K_vGAlu7Hvk6HKxNC-7">
          <mxGeometry width="50" height="50" relative="1" as="geometry">
            <mxPoint x="380" y="377" as="sourcePoint" />
            <mxPoint x="500" y="300" as="targetPoint" />
          </mxGeometry>
        </mxCell>
        <mxCell id="qv_K_vGAlu7Hvk6HKxNC-9" value="ログイン処理" style="text;html=1;align=center;verticalAlign=middle;resizable=0;points=[];autosize=1;strokeColor=none;fillColor=none;" vertex="1" parent="1">
          <mxGeometry x="170" y="300" width="100" height="30" as="geometry" />
        </mxCell>
        <mxCell id="qv_K_vGAlu7Hvk6HKxNC-10" value="" style="endArrow=classic;html=1;rounded=0;entryX=0.5;entryY=0;entryDx=0;entryDy=0;exitX=0.5;exitY=1;exitDx=0;exitDy=0;" edge="1" parent="1" source="qv_K_vGAlu7Hvk6HKxNC-4" target="qv_K_vGAlu7Hvk6HKxNC-7">
          <mxGeometry width="50" height="50" relative="1" as="geometry">
            <mxPoint x="360" y="367" as="sourcePoint" />
            <mxPoint x="480" y="290" as="targetPoint" />
          </mxGeometry>
        </mxCell>
        <mxCell id="qv_K_vGAlu7Hvk6HKxNC-12" value="購入手続き" style="rounded=0;whiteSpace=wrap;html=1;" vertex="1" parent="1">
          <mxGeometry x="800" y="360" width="120" height="60" as="geometry" />
        </mxCell>
        <mxCell id="qv_K_vGAlu7Hvk6HKxNC-16" value="決済失敗処理&lt;br&gt;（残高がない&lt;br&gt;クレカ上限到達&lt;span style=&quot;background-color: transparent; color: light-dark(rgb(0, 0, 0), rgb(255, 255, 255));&quot;&gt;）&lt;/span&gt;" style="rounded=0;whiteSpace=wrap;html=1;" vertex="1" parent="1">
          <mxGeometry x="970" y="160" width="120" height="60" as="geometry" />
        </mxCell>
        <mxCell id="qv_K_vGAlu7Hvk6HKxNC-17" value="引き落とし処理" style="rounded=0;whiteSpace=wrap;html=1;" vertex="1" parent="1">
          <mxGeometry x="1040" y="360" width="120" height="60" as="geometry" />
        </mxCell>
        <mxCell id="qv_K_vGAlu7Hvk6HKxNC-22" value="決済に失敗した場合" style="text;strokeColor=none;align=center;fillColor=none;html=1;verticalAlign=middle;whiteSpace=wrap;rounded=0;" vertex="1" parent="1">
          <mxGeometry x="760" y="200" width="110" height="30" as="geometry" />
        </mxCell>
        <mxCell id="qv_K_vGAlu7Hvk6HKxNC-23" value="残高がある場合" style="text;html=1;align=center;verticalAlign=middle;resizable=0;points=[];autosize=1;strokeColor=none;fillColor=none;" vertex="1" parent="1">
          <mxGeometry x="920" y="360" width="110" height="30" as="geometry" />
        </mxCell>
        <mxCell id="qv_K_vGAlu7Hvk6HKxNC-28" value="" style="endArrow=classic;html=1;rounded=0;entryX=1;entryY=0.5;entryDx=0;entryDy=0;exitX=0;exitY=0.5;exitDx=0;exitDy=0;" edge="1" parent="1" source="qv_K_vGAlu7Hvk6HKxNC-16" target="qv_K_vGAlu7Hvk6HKxNC-4">
          <mxGeometry width="50" height="50" relative="1" as="geometry">
            <mxPoint x="410" y="230" as="sourcePoint" />
            <mxPoint x="410" y="370" as="targetPoint" />
          </mxGeometry>
        </mxCell>
        <mxCell id="qv_K_vGAlu7Hvk6HKxNC-29" value="ログインしていない場合" style="text;html=1;align=center;verticalAlign=middle;resizable=0;points=[];autosize=1;strokeColor=none;fillColor=none;" vertex="1" parent="1">
          <mxGeometry x="550" y="160" width="160" height="30" as="geometry" />
        </mxCell>
        <mxCell id="qv_K_vGAlu7Hvk6HKxNC-30" value="" style="endArrow=classic;html=1;rounded=0;exitX=0;exitY=0.5;exitDx=0;exitDy=0;entryX=0.5;entryY=0;entryDx=0;entryDy=0;" edge="1" parent="1" source="qv_K_vGAlu7Hvk6HKxNC-16" target="qv_K_vGAlu7Hvk6HKxNC-31">
          <mxGeometry width="50" height="50" relative="1" as="geometry">
            <mxPoint x="510" y="420" as="sourcePoint" />
            <mxPoint x="560" y="370" as="targetPoint" />
          </mxGeometry>
        </mxCell>
        <mxCell id="qv_K_vGAlu7Hvk6HKxNC-31" value="商品の閲覧" style="rounded=0;whiteSpace=wrap;html=1;" vertex="1" parent="1">
          <mxGeometry x="400" y="360" width="120" height="60" as="geometry" />
        </mxCell>
        <mxCell id="qv_K_vGAlu7Hvk6HKxNC-32" value="" style="endArrow=classic;html=1;rounded=0;exitX=1;exitY=0.5;exitDx=0;exitDy=0;entryX=0;entryY=0.5;entryDx=0;entryDy=0;" edge="1" parent="1" source="qv_K_vGAlu7Hvk6HKxNC-7" target="qv_K_vGAlu7Hvk6HKxNC-31">
          <mxGeometry width="50" height="50" relative="1" as="geometry">
            <mxPoint x="620" y="510" as="sourcePoint" />
            <mxPoint x="280" y="680" as="targetPoint" />
          </mxGeometry>
        </mxCell>
        <mxCell id="qv_K_vGAlu7Hvk6HKxNC-33" value="" style="endArrow=classic;html=1;rounded=0;exitX=1;exitY=0.5;exitDx=0;exitDy=0;entryX=0;entryY=0.5;entryDx=0;entryDy=0;" edge="1" parent="1" source="qv_K_vGAlu7Hvk6HKxNC-31" target="qv_K_vGAlu7Hvk6HKxNC-36">
          <mxGeometry width="50" height="50" relative="1" as="geometry">
            <mxPoint x="310" y="500" as="sourcePoint" />
            <mxPoint x="470" y="510" as="targetPoint" />
          </mxGeometry>
        </mxCell>
        <mxCell id="qv_K_vGAlu7Hvk6HKxNC-34" value="" style="endArrow=classic;html=1;rounded=0;exitX=0.5;exitY=0;exitDx=0;exitDy=0;entryX=0.25;entryY=1;entryDx=0;entryDy=0;" edge="1" parent="1" source="qv_K_vGAlu7Hvk6HKxNC-12" target="qv_K_vGAlu7Hvk6HKxNC-16">
          <mxGeometry width="50" height="50" relative="1" as="geometry">
            <mxPoint x="350" y="560" as="sourcePoint" />
            <mxPoint x="430" y="560" as="targetPoint" />
          </mxGeometry>
        </mxCell>
        <mxCell id="qv_K_vGAlu7Hvk6HKxNC-35" value="" style="endArrow=classic;html=1;rounded=0;exitX=1;exitY=0.5;exitDx=0;exitDy=0;entryX=0;entryY=0.5;entryDx=0;entryDy=0;" edge="1" parent="1" source="qv_K_vGAlu7Hvk6HKxNC-12" target="qv_K_vGAlu7Hvk6HKxNC-17">
          <mxGeometry width="50" height="50" relative="1" as="geometry">
            <mxPoint x="490" y="550" as="sourcePoint" />
            <mxPoint x="570" y="550" as="targetPoint" />
          </mxGeometry>
        </mxCell>
        <mxCell id="qv_K_vGAlu7Hvk6HKxNC-36" value="カートに入れる" style="rounded=0;whiteSpace=wrap;html=1;" vertex="1" parent="1">
          <mxGeometry x="600" y="360" width="120" height="60" as="geometry" />
        </mxCell>
        <mxCell id="qv_K_vGAlu7Hvk6HKxNC-37" value="" style="endArrow=classic;html=1;rounded=0;exitX=1;exitY=0.5;exitDx=0;exitDy=0;entryX=0;entryY=0.5;entryDx=0;entryDy=0;" edge="1" parent="1" source="qv_K_vGAlu7Hvk6HKxNC-36" target="qv_K_vGAlu7Hvk6HKxNC-12">
          <mxGeometry width="50" height="50" relative="1" as="geometry">
            <mxPoint x="710" y="480" as="sourcePoint" />
            <mxPoint x="790" y="480" as="targetPoint" />
          </mxGeometry>
        </mxCell>
      </root>
    </mxGraphModel>
  </diagram>
</mxfile>
